<svg width="64" height="64" viewBox="0 0 64 64" fill="none" xmlns="http://www.w3.org/2000/svg">
<path d="M11.3808 50.2525C11.9805 54.7067 15.6696 58.196 20.1591 58.4024C23.9367 58.576 27.7741 58.6667 32 58.6667C36.2258 58.6667 40.0632 58.576 43.8408 58.4024C48.3304 58.196 52.0194 54.7067 52.6192 50.2525C53.0106 47.3459 53.3333 44.3669 53.3333 41.3333C53.3333 38.2997 53.0106 35.3208 52.6192 32.4141C52.0194 27.96 48.3304 24.4706 43.8408 24.2642C40.0632 24.0906 36.2258 24 32 24C27.7741 24 23.9367 24.0906 20.1591 24.2642C15.6696 24.4706 11.9805 27.96 11.3808 32.4141C10.9894 35.3208 10.6666 38.2997 10.6666 41.3333C10.6666 44.3669 10.9894 47.3459 11.3808 50.2525Z" fill="#EDE9F7" stroke="#4A22B3" stroke-width="4"/>
<path d="M20 23.9997V17.333C20 10.7056 25.3726 5.33301 32 5.33301C38.6275 5.33301 44 10.7056 44 17.333V23.9997" fill="#EDE9F7"/>
<path d="M20 23.9997V17.333C20 10.7056 25.3726 5.33301 32 5.33301C38.6275 5.33301 44 10.7056 44 17.333V23.9997" stroke="#4A22B3" stroke-width="4" stroke-linecap="round" stroke-linejoin="round"/>
<path d="M42.6666 41.3076V41.3343" stroke="#4A22B3" stroke-width="5.33333" stroke-linecap="round" stroke-linejoin="round"/>
<path d="M32 41.3076V41.3343" stroke="#4A22B3" stroke-width="5.33333" stroke-linecap="round" stroke-linejoin="round"/>
<path d="M21.3334 41.3076V41.3343" stroke="#4A22B3" stroke-width="5.33333" stroke-linecap="round" stroke-linejoin="round"/>
</svg>
